%TF.GenerationSoftware,KiCad,Pcbnew,(6.0.0)*%
%TF.CreationDate,2022-02-28T16:44:46-03:00*%
%TF.ProjectId,Placa Digital,506c6163-6120-4446-9967-6974616c2e6b,V01*%
%TF.SameCoordinates,Original*%
%TF.FileFunction,Soldermask,Top*%
%TF.FilePolarity,Negative*%
%FSLAX46Y46*%
G04 Gerber Fmt 4.6, Leading zero omitted, Abs format (unit mm)*
G04 Created by KiCad (PCBNEW (6.0.0)) date 2022-02-28 16:44:46*
%MOMM*%
%LPD*%
G01*
G04 APERTURE LIST*
G04 Aperture macros list*
%AMRoundRect*
0 Rectangle with rounded corners*
0 $1 Rounding radius*
0 $2 $3 $4 $5 $6 $7 $8 $9 X,Y pos of 4 corners*
0 Add a 4 corners polygon primitive as box body*
4,1,4,$2,$3,$4,$5,$6,$7,$8,$9,$2,$3,0*
0 Add four circle primitives for the rounded corners*
1,1,$1+$1,$2,$3*
1,1,$1+$1,$4,$5*
1,1,$1+$1,$6,$7*
1,1,$1+$1,$8,$9*
0 Add four rect primitives between the rounded corners*
20,1,$1+$1,$2,$3,$4,$5,0*
20,1,$1+$1,$4,$5,$6,$7,0*
20,1,$1+$1,$6,$7,$8,$9,0*
20,1,$1+$1,$8,$9,$2,$3,0*%
G04 Aperture macros list end*
%ADD10RoundRect,0.050800X-0.800000X-0.800000X0.800000X-0.800000X0.800000X0.800000X-0.800000X0.800000X0*%
%ADD11C,1.701600*%
%ADD12O,1.801600X1.801600*%
%ADD13RoundRect,0.050800X-0.850000X-0.850000X0.850000X-0.850000X0.850000X0.850000X-0.850000X0.850000X0*%
%ADD14C,0.801600*%
%ADD15C,4.501600*%
%ADD16RoundRect,0.050800X1.050000X-1.050000X1.050000X1.050000X-1.050000X1.050000X-1.050000X-1.050000X0*%
%ADD17C,2.201600*%
G04 APERTURE END LIST*
D10*
%TO.C,U1*%
X132000000Y-62140000D03*
D11*
X132000000Y-64680000D03*
X132000000Y-67220000D03*
X132000000Y-69760000D03*
X132000000Y-72300000D03*
X132000000Y-74840000D03*
X132000000Y-77380000D03*
X132000000Y-79920000D03*
X132000000Y-82460000D03*
X132000000Y-85000000D03*
X132000000Y-87540000D03*
X132000000Y-90080000D03*
X132000000Y-92620000D03*
X132000000Y-95160000D03*
X132000000Y-97700000D03*
X132000000Y-100240000D03*
X132000000Y-102780000D03*
X132000000Y-105320000D03*
X132000000Y-107860000D03*
X154500000Y-107860000D03*
X154500000Y-105320000D03*
X154500000Y-102780000D03*
X154500000Y-100240000D03*
X154500000Y-97700000D03*
X154500000Y-95160000D03*
X154500000Y-92620000D03*
X154500000Y-90080000D03*
X154500000Y-87540000D03*
X154500000Y-85000000D03*
X154500000Y-82460000D03*
X154500000Y-79920000D03*
X154500000Y-77380000D03*
X154500000Y-74840000D03*
X154500000Y-72300000D03*
X154500000Y-69760000D03*
X154500000Y-67220000D03*
X154500000Y-64680000D03*
X154500000Y-62140000D03*
%TD*%
D12*
%TO.C,J4*%
X122000000Y-87545000D03*
X122000000Y-90085000D03*
D13*
X122000000Y-67225000D03*
D12*
X122000000Y-69765000D03*
X122000000Y-72305000D03*
X122000000Y-74845000D03*
X122000000Y-77385000D03*
X122000000Y-79925000D03*
X122000000Y-82465000D03*
X122000000Y-85005000D03*
%TD*%
D14*
%TO.C,H1*%
X116833274Y-60166726D03*
X116833274Y-57833274D03*
X119166726Y-57833274D03*
D15*
X118000000Y-59000000D03*
D14*
X118000000Y-57350000D03*
X116350000Y-59000000D03*
X118000000Y-60650000D03*
X119650000Y-59000000D03*
X119166726Y-60166726D03*
%TD*%
%TO.C,H3*%
X166833274Y-110166726D03*
X166350000Y-109000000D03*
X169650000Y-109000000D03*
X166833274Y-107833274D03*
X169166726Y-107833274D03*
D15*
X168000000Y-109000000D03*
D14*
X168000000Y-107350000D03*
X168000000Y-110650000D03*
X169166726Y-110166726D03*
%TD*%
D16*
%TO.C,U2*%
X121000000Y-100540000D03*
D17*
X121000000Y-95460000D03*
%TD*%
D14*
%TO.C,H2*%
X168000000Y-57350000D03*
X166350000Y-59000000D03*
X166833274Y-60166726D03*
D15*
X168000000Y-59000000D03*
D14*
X169166726Y-57833274D03*
X169650000Y-59000000D03*
X166833274Y-57833274D03*
X168000000Y-60650000D03*
X169166726Y-60166726D03*
%TD*%
D12*
%TO.C,J2*%
X163000000Y-92080000D03*
X163000000Y-94620000D03*
X163000000Y-97160000D03*
X163000000Y-99700000D03*
X163000000Y-102240000D03*
X163000000Y-104780000D03*
D13*
X163000000Y-87000000D03*
D12*
X163000000Y-89540000D03*
%TD*%
D14*
%TO.C,H4*%
X119650000Y-109000000D03*
X119166726Y-110166726D03*
X116350000Y-109000000D03*
X118000000Y-107350000D03*
X116833274Y-107833274D03*
X118000000Y-110650000D03*
X116833274Y-110166726D03*
X119166726Y-107833274D03*
D15*
X118000000Y-109000000D03*
%TD*%
D12*
%TO.C,J1*%
X163000000Y-76825000D03*
X163000000Y-79365000D03*
X163000000Y-81905000D03*
X163000000Y-74285000D03*
X163000000Y-71745000D03*
D13*
X163000000Y-64125000D03*
D12*
X163000000Y-66665000D03*
X163000000Y-69205000D03*
%TD*%
M02*
