M48
; DRILL file {KiCad (6.0.0)} date Mon Feb 28 16:44:44 2022
; FORMAT={-:-/ absolute / inch / decimal}
; #@! TF.CreationDate,2022-02-28T16:44:44-03:00
; #@! TF.GenerationSoftware,Kicad,Pcbnew,(6.0.0)
; #@! TF.FileFunction,Plated,1,2,PTH
FMAT,2
INCH
; #@! TA.AperFunction,Plated,PTH,ViaDrill
T1C0.0157
; #@! TA.AperFunction,Plated,PTH,ComponentDrill
T2C0.0157
; #@! TA.AperFunction,Plated,PTH,ComponentDrill
T3C0.0394
; #@! TA.AperFunction,Plated,PTH,ComponentDrill
T4C0.0472
; #@! TA.AperFunction,Plated,PTH,ComponentDrill
T5C0.0551
; #@! TA.AperFunction,Plated,PTH,ComponentDrill
T6C0.0866
%
G90
G05
T1
X5.5276Y-4.3189
X5.8701Y-4.3189
T2
X4.5807Y-2.3228
X4.5807Y-4.2913
X4.5997Y-2.2769
X4.5997Y-2.3688
X4.5997Y-4.2454
X4.5997Y-4.3373
X4.6457Y-2.2579
X4.6457Y-2.3878
X4.6457Y-4.2264
X4.6457Y-4.3563
X4.6916Y-2.2769
X4.6916Y-2.3688
X4.6916Y-4.2454
X4.6916Y-4.3373
X4.7106Y-2.3228
X4.7106Y-4.2913
X6.5492Y-2.3228
X6.5492Y-4.2913
X6.5682Y-2.2769
X6.5682Y-2.3688
X6.5682Y-4.2454
X6.5682Y-4.3373
X6.6142Y-2.2579
X6.6142Y-2.3878
X6.6142Y-4.2264
X6.6142Y-4.3563
X6.6601Y-2.2769
X6.6601Y-2.3688
X6.6601Y-4.2454
X6.6601Y-4.3373
X6.6791Y-2.3228
X6.6791Y-4.2913
T3
X4.8031Y-2.6467
X4.8031Y-2.7467
X4.8031Y-2.8467
X4.8031Y-2.9467
X4.8031Y-3.0467
X4.8031Y-3.1467
X4.8031Y-3.2467
X4.8031Y-3.3467
X4.8031Y-3.4467
X4.8031Y-3.5467
X6.4173Y-2.5246
X6.4173Y-2.6246
X6.4173Y-2.7246
X6.4173Y-2.8246
X6.4173Y-2.9246
X6.4173Y-3.0246
X6.4173Y-3.1246
X6.4173Y-3.2246
X6.4173Y-3.4252
X6.4173Y-3.5252
X6.4173Y-3.6252
X6.4173Y-3.7252
X6.4173Y-3.8252
X6.4173Y-3.9252
X6.4173Y-4.0252
X6.4173Y-4.1252
T4
X5.1969Y-2.4465
X5.1969Y-2.5465
X5.1969Y-2.6465
X5.1969Y-2.7465
X5.1969Y-2.8465
X5.1969Y-2.9465
X5.1969Y-3.0465
X5.1969Y-3.1465
X5.1969Y-3.2465
X5.1969Y-3.3465
X5.1969Y-3.4465
X5.1969Y-3.5465
X5.1969Y-3.6465
X5.1969Y-3.7465
X5.1969Y-3.8465
X5.1969Y-3.9465
X5.1969Y-4.0465
X5.1969Y-4.1465
X5.1969Y-4.2465
X6.0827Y-2.4465
X6.0827Y-2.5465
X6.0827Y-2.6465
X6.0827Y-2.7465
X6.0827Y-2.8465
X6.0827Y-2.9465
X6.0827Y-3.0465
X6.0827Y-3.1465
X6.0827Y-3.2465
X6.0827Y-3.3465
X6.0827Y-3.4465
X6.0827Y-3.5465
X6.0827Y-3.6465
X6.0827Y-3.7465
X6.0827Y-3.8465
X6.0827Y-3.9465
X6.0827Y-4.0465
X6.0827Y-4.1465
X6.0827Y-4.2465
T5
X4.7638Y-3.7583
X4.7638Y-3.9583
T6
X4.6457Y-2.3228
X4.6457Y-4.2913
X6.6142Y-2.3228
X6.6142Y-4.2913
T0
M30
